<svg
   version="1.1"
   x="0px"
   y="0px"
   viewBox="0 0 130.39 130.39"
   xml:space="preserve"
   xmlns:inkscape="http://www.inkscape.org/namespaces/inkscape"
   xmlns:sodipodi="http://sodipodi.sourceforge.net/DTD/sodipodi-0.dtd"
   xmlns="http://www.w3.org/2000/svg"
   xmlns:svg="http://www.w3.org/2000/svg">
<path
   d="m 44.5025,94.49 c -6.98,0 -12.78,-2.55 -17.41,-7.66 -4.63,-5.11 -6.94,-12.2 -6.94,-21.28 0,-8.97 2.35,-16.03 7.06,-21.2 4.71,-5.16 10.61,-7.75 17.71,-7.75 3.4,0 6.4,0.7 8.98,2.09 2.58,1.39 4.69,2.99 6.34,4.81 l -3.83,4.6 c -1.48,-1.59 -3.15,-2.86 -5.02,-3.83 -1.87,-0.96 -4,-1.45 -6.38,-1.45 -5.28,0 -9.52,2.03 -12.73,6.09 -3.21,4.06 -4.81,9.55 -4.81,16.47 0,7.04 1.56,12.61 4.68,16.73 3.12,4.11 7.32,6.17 12.6,6.17 2.67,0 5.05,-0.55 7.15,-1.66 2.1,-1.11 4.03,-2.65 5.79,-4.64 l 3.92,4.43 c -2.21,2.55 -4.71,4.54 -7.49,5.96 -2.78,1.41 -5.99,2.12 -9.62,2.12 z m 28.7,-28.68 h -5.18 V 36.6 h 9.87 c 3.04,0 5.58,0.62 7.64,1.88 2.05,1.25 3.08,3.51 3.08,6.79 0,2.23 -0.53,4.03 -1.58,5.4 -1.06,1.37 -2.46,2.35 -4.22,2.95 l 6.97,12.19 h -5.81 l -6.3,-11.43 h -4.47 z m 0,-15.54 h 4.15 c 4.11,0 6.16,-1.67 6.16,-5 0,-1.67 -0.53,-2.84 -1.59,-3.51 -1.06,-0.67 -2.58,-1 -4.58,-1 h -4.15 v 9.51 z m 29.53,16.08 c -3.04,0 -5.6,-1.01 -7.68,-3.04 -2.08,-2.03 -3.13,-4.84 -3.13,-8.44 0,-2.38 0.48,-4.44 1.45,-6.16 0.97,-1.73 2.23,-3.05 3.77,-3.97 1.55,-0.92 3.17,-1.38 4.87,-1.38 2.98,0 5.23,0.97 6.77,2.9 1.53,1.94 2.3,4.44 2.3,7.5 0,1.07 -0.07,1.9 -0.22,2.5 h -13.94 c 0.21,1.94 0.9,3.44 2.08,4.51 1.18,1.07 2.64,1.61 4.4,1.61 0.95,0 1.84,-0.14 2.66,-0.43 0.82,-0.28 1.63,-0.68 2.43,-1.18 l 1.74,3.22 c -1.04,0.69 -2.2,1.25 -3.48,1.7 -1.28,0.44 -2.62,0.66 -4.02,0.66 z m -5.85,-13.58 h 9.74 c 0,-1.7 -0.37,-3.03 -1.12,-4 -0.74,-0.97 -1.86,-1.45 -3.35,-1.45 -1.31,0 -2.46,0.47 -3.44,1.41 -0.98,0.94 -1.59,2.29 -1.83,4.04 z"
   fill="currentColor"
   />
</svg>