<svg xmlns="http://www.w3.org/2000/svg" viewBox="0 0 400 400">
    <path
        d="M 193 39.593 C 171.800 42.087, 159.028 45.205, 144 51.555 C 89.904 74.413, 53.211 126.153, 49.354 185.014 L 48.699 195 36.850 195 L 25 195 25 197.894 C 25 204.081, 27.191 221.949, 29.059 231 C 44.228 304.483, 105.977 361.710, 180.662 371.500 C 186.954 372.325, 194.779 373, 198.051 373 L 204 373 204 361.151 L 204 349.301 214.250 348.721 C 239.896 347.268, 265.653 338.724, 288 324.256 C 296.544 318.725, 313 305.515, 313 304.189 C 313 303.797, 305.610 296.097, 296.577 287.077 L 280.154 270.676 275.077 275.241 C 247.794 299.770, 206.202 308.391, 171.008 296.812 C 157.043 292.217, 143.110 284.287, 132.673 274.993 L 127.846 270.694 136.353 262.097 L 144.861 253.500 140.909 249.097 C 126.691 233.257, 118.941 210.658, 120.403 189.306 C 123.455 144.738, 159.617 110.762, 204 110.762 C 225.025 110.762, 243.317 117.671, 260 131.914 L 263.500 134.902 271.250 127.224 C 275.512 123.002, 279 119.275, 279 118.943 C 279 118.611, 286.643 110.742, 295.984 101.457 L 312.968 84.576 310.234 81.680 C 308.730 80.087, 303.900 75.962, 299.500 72.514 C 278.942 56.401, 255.389 45.950, 229.692 41.538 C 220.676 39.990, 199.272 38.855, 193 39.593 M 204.707 159.072 C 191.442 161.057, 179.019 170.122, 173.107 182.130 C 160.237 208.274, 174.089 238.541, 201.886 245.011 C 208.964 246.659, 222.024 245.785, 228.719 243.218 C 235.061 240.785, 242.833 235.219, 246.377 230.572 L 248.999 227.135 240.594 221.068 C 235.971 217.730, 231.859 215, 231.456 215 C 231.053 215, 228.808 216.766, 226.467 218.924 C 222.495 222.585, 217.027 224.981, 212.616 224.994 C 208.325 225.007, 202.316 222.316, 198.813 218.813 C 186.044 206.044, 193.360 181.630, 210.378 180.219 C 217.142 179.658, 221.586 181.098, 226.763 185.530 C 228.993 187.438, 231.024 189, 231.277 189 C 232.067 189, 247.484 176.886, 247.802 176.015 C 248.315 174.610, 242.189 168.329, 237.222 165.168 C 228.912 159.880, 215.772 157.416, 204.707 159.072"
        stroke="none" fill="currentColor" fill-rule="evenodd" />
</svg>  