<?xml version="1.0" encoding="UTF-8" standalone="no"?>
<svg
   viewBox="0 0 1413 1413"
   version="1.1"
   id="svg1"
   sodipodi:docname="mclaren.svg"
   inkscape:version="1.3.2 (091e20e, 2023-11-25)"
   xmlns:inkscape="http://www.inkscape.org/namespaces/inkscape"
   xmlns:sodipodi="http://sodipodi.sourceforge.net/DTD/sodipodi-0.dtd"
   xmlns="http://www.w3.org/2000/svg"
   xmlns:svg="http://www.w3.org/2000/svg">
  <defs
     id="defs1" />
  <sodipodi:namedview
     id="namedview1"
     pagecolor="#ffffff"
     bordercolor="#666666"
     borderopacity="1.0"
     inkscape:showpageshadow="2"
     inkscape:pageopacity="0.0"
     inkscape:pagecheckerboard="0"
     inkscape:deskcolor="#d1d1d1"
     inkscape:zoom="0.16702052"
     inkscape:cx="703.50636"
     inkscape:cy="703.50636"
     inkscape:window-width="1920"
     inkscape:window-height="922"
     inkscape:window-x="0"
     inkscape:window-y="25"
     inkscape:window-maximized="0"
     inkscape:current-layer="svg1" />
  <path
     d="m 903.71183,438.24157 c 45.23057,-7.96468 91.19184,-9.1338 136.86087,-9.86451 45.5959,-0.36535 93.0916,4.53037 133.7918,26.96298 37.2659,15.19864 57.7987,60.79456 44.0615,99.22958 -17.8292,58.89473 -60.0639,106.02513 -103.0293,148.25981 -108.7287,112.16304 -243.61663,192.6866 -373.24349,277.88667 21.70191,-31.5664 39.53108,-66.1287 52.82989,-101.86011 10.22985,-28.1321 20.16743,-57.36026 21.26348,-87.83061 1.53448,-31.20105 -4.96878,-64.59422 -25.06314,-89.29201 -20.16743,-22.79796 -49.03023,-36.46212 -77.89303,-44.49986 -41.79626,-11.8374 -85.93077,-13.00653 -129.26151,-13.00653 -98.42581,0.7307 -196.12091,16.73312 -292.28154,36.46212 -33.83159,6.13791 -66.93247,16.36777 -101.49476,17.90225 29.30122,-9.49915 55.09507,-26.59762 82.86181,-40.26179 129.62686,-65.76334 263.78409,-122.75824 402.54475,-166.08898 74.45872,-23.60173 150.89035,-40.7002 228.05267,-53.99901 z"
     fill="currentColor"
     id="path1"
     style="stroke-width:0.730704" />
</svg>
