<svg xmlns="http://www.w3.org/2000/svg" viewBox="0 0 200 200">
  <path
     d="m 175.01822,25.471411 c 15.5327,14.681585 24.72527,34.892461 25.40235,56.246094 0.561,33.202635 -9.26178,58.422185 -32.36328,82.824215 -16.58147,16.16635 -39.62759,26.47388 -62.875,27.4375 -0.98356,0.0516 -1.96711,0.10313 -2.98047,0.15625 -26.279733,0.72579 -52.203362,-7.71025 -72.019532,-25.15625 -1.51593,-1.14469 -1.51593,-1.14469 -3.0625,-2.3125 C 12.026078,150.85758 1.0798283,130.13291 0.05924826,109.49045 -0.77172174,79.864604 7.0984483,56.932425 26.182288,33.979224 c 2.54674,-2.474452 5.27901,-4.719869 8,-7 0.7193,-0.630352 1.4386,-1.260704 2.17969,-1.910157 C 75.72138,-8.2605275 136.26293,-8.5862765 175.01822,25.471411 Z M 32.557288,43.791723 c -13.64831,16.453626 -21.50052,34.995032 -20.16015,56.660157 2.88047,24.33316 15.32786,45.05735 34.15234,60.46484 19.23545,14.12702 42.228994,19.83723 65.820312,16.56641 8.34133,-1.53794 16.05182,-4.11228 23.8125,-7.50391 0.96164,-0.39574 1.92328,-0.79148 2.91406,-1.19922 14.16101,-6.35528 26.00671,-17.36948 35.08594,-29.80078 0.96486,-1.30324 0.96486,-1.30324 1.94922,-2.63281 11.98241,-17.41479 16.19754,-39.745335 12.43359,-60.484374 -0.89868,-3.443599 -2.00692,-6.600941 -3.38281,-9.882813 -0.3947,-0.957612 -0.3947,-0.957612 -0.79737,-1.93457 -4.40213,-10.418638 -10.0852,-18.252109 -18.20263,-26.065429 -1.09442,-1.106016 -1.09442,-1.106016 -2.21094,-2.234375 C 145.951,18.461393 122.0295,14.311605 97.979166,14.666723 74.080168,15.462031 48.746028,25.919647 32.557288,43.791723 Z"
     fill="currentColor"
/>
  <path
     d="m 156.36587,43.518286 c 12.22523,10.682234 21.66507,27.21192 22.9878,43.582031 1.21337,20.484913 -4.33377,38.807583 -18.00342,54.492183 -1.07315,1.18143 -1.07315,1.18143 -2.16797,2.38673 -0.54012,0.63293 -1.08023,1.26586 -1.63672,1.91797 -11.7662,12.95171 -31.07314,21.17883 -48.33887,22.19873 -23.870944,1.07821 -45.519838,-5.81765 -64.024402,-21.1167 -1.51594,-1.14469 -1.51594,-1.14469 -3.0625,-2.3125 -12.7332,-11.64953 -20.56009,-27.70411 -22.2461,-44.820319 -0.76055,-18.760237 7.02377,-34.507825 19.40235,-48.179687 C 69.967564,19.678369 121.56999,16.207827 156.36587,43.518286 Z M 52.494788,61.041723 c -10.94675,13.99845 -16.04645,29.207887 -14.3125,46.937497 3.18663,16.54877 13.33518,29.75609 27.042965,39.2461 15.848746,9.40038 34.013343,11.05042 51.678707,6.65405 15.85913,-4.35963 28.80619,-13.45211 37.81738,-27.29858 8.07814,-14.38513 10.67416,-30.051153 7.8086,-46.300785 C 158.13771,64.652727 148.42882,51.798002 134.43228,43.541724 105.73289,27.729866 73.324012,37.292843 52.494788,61.041723 Z"
     fill="currentColor"
  />
  <path
     d="m 133.67837,60.002661 c 9.07445,7.163288 16.02129,17.318679 17.50391,28.976562 1.19974,13.843197 -2.11776,25.289067 -11,35.999997 -2.5625,2.8125 -2.5625,2.8125 -5,5 -1.33031,1.2375 -1.33031,1.2375 -2.6875,2.5 -10.30659,8.44235 -23.27596,11.26226 -36.312496,10.5 -15.893591,-1.95271 -29.757279,-9.76171 -40,-22 -7.425077,-10.75409 -9.145609,-21.189446 -7,-33.999997 3.198728,-12.169073 12.216235,-22.293537 22.855469,-28.726562 19.656406,-10.324063 42.866547,-11.093982 61.640617,1.75 z M 73.307284,79.916723 c -5.148746,6.304831 -7.335879,12.949857 -7.125,21.062497 1.836298,9.43949 7.216469,16.52762 15,22 11.122967,5.54479 20.076086,6.15703 31.882806,2.25782 9.05808,-3.65502 16.50426,-11.1395 20.55469,-20.00782 2.59697,-7.318726 2.85351,-14.891484 -0.125,-22.124997 -4.82551,-9.203302 -11.40442,-13.638746 -21.375,-16.773437 -14.584077,-2.646305 -28.882938,2.890976 -38.812496,13.585937 z"
     fill="currentColor"
/>
  <path
     d="m 118.51431,82.471411 c 2.83208,2.560141 3.74947,4.833788 4.66797,8.507813 0.23113,6.019757 -0.99976,10.368146 -5,14.999996 -6.36083,5.68214 -13.1179,7.46424 -21.574212,7.2461 -5.246418,-0.53225 -8.496812,-2.37771 -12.300781,-5.9336 -2.496345,-3.89136 -3.437279,-6.70861 -3.125,-11.312496 2.28851,-7.106427 5.341341,-11.324695 11.9375,-14.75 8.722643,-4.26021 17.272353,-4.431989 25.394523,1.242187 z M 96.182287,92.979224 c -1.157659,1.879572 -1.157659,1.879572 -1,4 0.920233,2.839285 0.920233,2.839285 3,4.999996 2.956593,0.8335 2.956593,0.8335 5.999993,0 2.66436,-2.454005 3.83976,-4.03852 4.4375,-7.624996 -0.27547,-2.404547 -0.27547,-2.404547 -1.6875,-4.1875 -4.45439,-3.022624 -7.473361,-0.375575 -10.749993,2.8125 z"
     fill="currentColor"
 />
</svg>
